<?xml version="1.0" encoding="UTF-8"?>
<svg width="48px" height="62px" viewBox="0 0 48 62" version="1.1" xmlns="http://www.w3.org/2000/svg" xmlns:xlink="http://www.w3.org/1999/xlink">
    <!-- Generator: Sketch 44.1 (41455) - http://www.bohemiancoding.com/sketch -->
    <title>Group Copy 10</title>
    <desc>Created with Sketch.</desc>
    <defs></defs>
    <g id="Page-1" stroke="none" stroke-width="1" fill="none" fill-rule="evenodd">
        <g id="Main-Mobile" transform="translate(-136.000000, -138.000000)" fill="#00447F">
            <g id="Group-4" transform="translate(81.000000, 138.000000)">
                <g id="Group-Copy-10" transform="translate(55.000000, 0.000000)">
                    <path d="M25.7043928,31.2718608 C25.3036446,32.069 24.4845408,32.6165876 23.5414797,32.6165876 C22.5991228,32.6165876 21.7807233,32.069 21.3799751,31.2718608 L25.7043928,31.2718608 Z M18.9268894,30.1624255 C18.9268894,32.7385114 20.9968346,34.8347452 23.5414797,34.8347452 C26.0861247,34.8347452 28.1567742,32.7385114 28.1567742,30.1624255 C28.1567742,29.5499545 27.6665796,29.0529902 27.0615838,29.0529902 L20.0227841,29.0529902 C19.4177883,29.0529902 18.9268894,29.5499545 18.9268894,30.1624255 L18.9268894,30.1624255 Z" id="Fill-1870"></path>
                    <path d="M23.2183689,28.6238595 L23.8670316,28.6238595 C24.4727318,28.6238595 24.9629263,28.1268953 24.9629263,27.5144243 L24.9629263,23.201459 C24.9629263,22.588988 24.4727318,22.0920237 23.8670316,22.0920237 C23.26274,22.0920237 22.7718411,22.588988 22.7718411,23.201459 L22.7718411,26.5012446 C22.3894048,26.6745048 22.1231785,27.0630923 22.1231785,27.5144243 C22.1231785,28.1268953 22.613373,28.6238595 23.2183689,28.6238595" id="Fill-1871"></path>
                    <path d="M42.8748255,46.5789708 C43.6780375,46.5789708 44.4319728,46.3619355 45.0845385,45.9835517 C44.861385,47.3535867 44.3749524,48.8535574 43.3690015,50.0379702 C42.2511219,51.3537464 40.6137238,52.0883822 38.4976368,52.2311686 C37.0277799,48.2167302 32.9765221,44.996184 27.7334694,43.9138635 L27.7334694,39.9444028 C30.3268376,38.7792662 32.5119122,36.4782641 33.9275645,33.5040244 C34.3907666,33.8288633 34.9511143,34.020197 35.5551072,34.020197 C37.0242601,34.020197 38.2371736,32.8964684 38.4075306,31.4528984 L38.4075306,42.0476458 C38.4075306,44.546407 40.4116889,46.5789708 42.8748255,46.5789708 Z M36.9102195,59.5575364 L33.4298687,59.5575364 L33.4298687,58.6487013 C33.5819229,55.7087302 31.8945441,53.095026 29.3173669,52.2839995 C27.7144626,51.7799637 25.5730332,51.996999 23.8673516,53.8417987 C22.16167,51.996999 20.0195366,51.7799637 18.4173363,52.2839995 C15.8401591,53.095026 14.1527803,55.7094442 14.3048344,58.6487013 L14.3048344,59.5575364 L10.8244836,59.5575364 L10.8244836,55.5709414 C10.8244836,50.918962 15.2157515,46.8688271 21.264832,45.9400018 C21.837147,45.8521882 22.2369931,45.3295902 22.191236,44.7534472 L22.191236,40.6319191 C22.7389126,40.7332974 23.2985564,40.7882702 23.8673516,40.7882702 C24.4368507,40.7882702 24.9957906,40.7332974 25.5434671,40.6319191 L25.5434671,44.8098478 C25.5434671,45.237493 25.7821077,45.6080236 26.131973,45.7936458 C26.2544611,45.8721783 26.394548,45.927865 26.5473061,45.9521387 C32.5520376,46.9030958 36.9102195,50.9482332 36.9102195,55.5709414 L36.9102195,59.5575364 Z M31.2412744,58.5544623 L31.2398665,58.6180022 L31.2398665,59.5575364 L16.4948367,59.5575364 L16.4948367,58.6180022 L16.4934288,58.5544623 C16.366013,56.2998657 17.7380202,54.8234548 19.0656783,54.4058048 C20.5418708,53.9410352 21.9511876,54.6149868 22.9303882,56.255602 C23.2436479,56.7803418 23.9173323,56.9481158 24.4347389,56.6304161 C24.5910167,56.5340354 24.7149127,56.4040998 24.803611,56.255602 C25.7835156,54.6149868 27.1914245,53.9403212 28.6683209,54.4058048 C29.9966829,54.8234548 31.3686901,56.2998657 31.2412744,58.5544623 Z M9.2349545,52.2311686 C7.12379513,52.0883822 5.48921291,51.3558882 4.3720372,50.0451095 C3.36679026,48.8656942 2.87965378,47.36144 2.65579627,45.9864074 C3.30695413,46.3626494 4.05877748,46.5789708 4.86058159,46.5789708 C7.32371819,46.5789708 9.32787649,44.546407 9.32787649,42.0476458 L9.32787649,31.457182 C9.50034533,32.8993241 10.7118509,34.020197 12.178892,34.020197 C12.7835889,34.020197 13.3439366,33.8281494 13.8071386,33.5033104 C15.2220871,36.4775502 17.4071616,38.7792662 20.0012338,39.9444028 L20.0012338,43.9131495 C14.7525494,44.9947562 10.7026995,48.2117327 9.2349545,52.2311686 Z M12.8638397,31.1044997 C12.8638397,31.487881 12.5569155,31.7991553 12.178892,31.7991553 C11.8015724,31.7991553 11.4946483,31.487881 11.4946483,31.1044997 C11.4946483,30.7225462 11.8015724,30.4112719 12.178892,30.4112719 C12.4492105,30.4112719 12.6815155,30.5719066 12.7927403,30.8032205 C12.812451,30.8731858 12.8335696,30.9431511 12.8546883,31.0131164 L12.8638397,31.1044997 Z M12.070483,15.9227406 L12.070483,25.5608195 C12.070483,26.4589457 12.133135,27.3377957 12.2492874,28.1937999 L12.178892,28.1902302 C10.7118509,28.1902302 9.50034533,29.3111031 9.32787649,30.7525313 L9.32787649,17.3320419 C9.32787649,13.5710494 10.6752453,10.1313261 12.8927018,7.49334822 C13.2101852,8.08234193 13.6600121,8.7784254 14.2935711,9.52519803 C12.1598852,11.1843755 12.0725949,15.3501673 12.070483,15.9227406 Z M27.2421092,22.3359897 C27.3047611,22.3609773 27.3695249,22.3823953 27.4328808,22.405955 L27.1048381,23.1341654 C26.8535263,23.6917461 27.0956867,24.3507051 27.6454751,24.6055788 C27.7933055,24.6741162 27.9474715,24.7062432 28.1002296,24.7062432 C28.5155628,24.7062432 28.9125931,24.4649342 29.0963252,24.0572792 L29.5975408,22.9456874 C29.8692672,22.9820979 30.1445134,23.0070856 30.4211675,23.023506 L30.4211675,24.00659 C30.4211675,24.6198574 30.9118237,25.1174679 31.5165206,25.1174679 C32.1212174,25.1174679 32.6111697,24.6198574 32.6111697,24.00659 L32.6111697,22.9456874 C32.9040148,22.9057072 33.1912282,22.8521624 33.4742179,22.7886224 L33.4742179,25.5608195 C33.4742179,32.7322641 29.1653127,38.5672285 23.8673516,38.5672285 C18.5700944,38.5672285 14.2604853,32.7322641 14.2604853,25.5608195 L14.2604853,22.7907642 C14.5441789,22.8528763 14.8320963,22.9057072 15.1242374,22.9456874 L15.1242374,24.00659 C15.1242374,24.6198574 15.6148936,25.1174679 16.2195905,25.1174679 C16.8242874,25.1174679 17.3142397,24.6198574 17.3142397,24.00659 L17.3142397,23.023506 C17.5915977,23.0070856 17.8668439,22.9820979 18.1378664,22.9456874 L18.6390819,24.0572792 C18.822814,24.4656482 19.2205483,24.7062432 19.6358814,24.7062432 C19.7879356,24.7062432 19.9428056,24.6741162 20.089932,24.6055788 C20.6404244,24.3507051 20.8825847,23.6917461 20.631273,23.1334515 L20.3032302,22.405955 C20.3665861,22.3823953 20.4313499,22.3609773 20.4940019,22.3359897 C21.0571654,22.1118151 21.3338195,21.4671347 21.1127778,20.8959893 C20.8910322,20.3255578 20.2553613,20.0449826 19.6929017,20.2684433 C18.7777609,20.6332624 17.7183095,20.826024 16.6299959,20.826024 C15.8070732,20.826024 15.0003414,20.7153646 14.2604853,20.5040408 L14.2604853,15.9263103 C14.264709,14.5548473 14.6955291,11.6591401 15.9147782,11.1479649 C18.8882818,13.6995571 24.1672362,16.3318235 33.4742179,17.0221955 L33.4742179,20.5004711 C32.7350657,20.7125088 31.9297418,20.826024 31.1054112,20.826024 C30.0170976,20.826024 28.9583501,20.6332624 28.0425054,20.2684433 C27.4800458,20.0442687 26.8443749,20.3255578 26.6233332,20.8959893 C26.4022915,21.4671347 26.6789456,22.1118151 27.2421092,22.3359897 Z M36.2400549,31.1044997 C36.2400549,31.487881 35.9331307,31.7991553 35.5551072,31.7991553 C35.1784916,31.7991553 34.8715674,31.487881 34.8715674,31.1044997 L34.8807189,31.0131164 C34.9011335,30.9431511 34.9222522,30.8731858 34.9426668,30.8032205 C35.0538916,30.5719066 35.2854927,30.4112719 35.5551072,30.4112719 C35.9331307,30.4112719 36.2400549,30.7225462 36.2400549,31.1044997 Z M35.5551072,28.1902302 L35.4861197,28.1930859 C35.6022722,27.3377957 35.6642202,26.4582317 35.6642202,25.5608195 L35.6642202,15.9762855 C35.6642202,15.3630181 35.1742679,14.8661216 34.569571,14.8661216 L34.5421168,14.8675495 C25.0542188,14.3135384 20.0469908,11.6976924 17.5176825,9.60016087 C15.6852891,8.08091406 14.8651821,6.61164248 14.5286919,5.82845933 C17.0565923,3.63311914 20.3144935,2.30734785 23.8673516,2.30734785 C31.8846887,2.30734785 38.4075306,9.04757768 38.4075306,17.3320419 L38.4075306,30.7568149 C38.2371736,29.3132449 37.0242601,28.1902302 35.5551072,28.1902302 Z M40.5975329,17.3786121 C40.5975329,17.3786121 40.1846166,0.190145661 23.8678033,0.190145661 C7.55098997,0.190145661 7.13787422,17.3786121 7.13787422,17.3786121 L7.13787422,31.405065 L7.13787422,42.0476458 C7.13787422,43.3213001 6.11643632,44.357929 4.86058159,44.357929 C3.60472686,44.357929 2.58258501,43.3213001 2.58258501,42.0476458 C2.58258501,41.4350924 2.09263272,40.9374819 1.48793585,40.9374819 C0.938147427,40.9374819 0.48409681,41.3487066 0.405957867,41.8841555 C0.369352236,42.1240365 -0.425412331,47.801222 2.70648099,51.4872517 C4.15240342,53.189265 6.16782499,54.1694933 8.70698867,54.4150859 C8.66052768,54.7963254 8.63448136,55.1818486 8.63448136,55.5709414 L8.63448136,60.6684142 C8.63448136,61.2816816 9.12513761,61.7785781 9.72983448,61.7785781 L38.0048687,61.7785781 C38.6095655,61.7785781 39.1002218,61.2816816 39.1002218,60.6684142 L39.1002218,55.5709414 C39.1002218,55.1818486 39.0741755,54.7970394 39.0277145,54.4157998 C41.5661742,54.1702073 43.5822997,53.189265 45.0282222,51.4872517 C48.1601155,47.801222 47.3660549,42.1240365 47.3308572,41.8834415 C47.2506063,41.3487066 46.7972597,40.9374819 46.2474713,40.9374819 C45.6427744,40.9374819 45.1528221,41.4350924 45.1528221,42.0476458 C45.1528221,43.3213001 44.1306802,44.357929 42.8748255,44.357929 C41.6189708,44.357929 40.5975329,43.3213001 40.5975329,42.0476458 L40.5975329,35.903549 L40.5975329,17.3786121 Z" id="Fill-1872"></path>
                </g>
            </g>
        </g>
    </g>
</svg>