<?xml version="1.0" encoding="UTF-8"?>
<svg width="47px" height="52px" viewBox="0 0 47 52" version="1.1" xmlns="http://www.w3.org/2000/svg" xmlns:xlink="http://www.w3.org/1999/xlink">
    <!-- Generator: Sketch 44.1 (41455) - http://www.bohemiancoding.com/sketch -->
    <title>Page 1 Copy</title>
    <desc>Created with Sketch.</desc>
    <defs></defs>
    <g id="Page-1" stroke="none" stroke-width="1" fill="none" fill-rule="evenodd">
        <g id="Main-Mobile" transform="translate(-137.000000, -389.000000)" fill-rule="nonzero" fill="#F29C3F">
            <g id="Page-1-Copy" transform="translate(137.000000, 389.000000)">
                <path d="M8.56488988,3.44467131 C8.56488988,2.8656614 8.13561588,2.41860465 7.6395878,2.41860465 C7.14355971,2.41860465 6.71428571,2.8656614 6.71428571,3.44467131 C6.71428571,4.02368121 7.14355971,4.47073796 7.6395878,4.47073796 C8.13561588,4.47073796 8.56488988,4.02368121 8.56488988,3.44467131 Z M11.0064483,3.44467131 C11.0064483,5.33312288 9.51213096,6.88934261 7.6395878,6.88934261 C5.76704464,6.88934261 4.27272727,5.33312288 4.27272727,3.44467131 C4.27272727,1.55621973 5.76704464,0 7.6395878,0 C9.51213096,0 11.0064483,1.55621973 11.0064483,3.44467131 Z" id="Stroke-1"></path>
                <path d="M31.7596951,18.5609504 C31.7596951,17.9819405 31.3304211,17.5348837 30.834393,17.5348837 C30.3383649,17.5348837 29.9090909,17.9819405 29.9090909,18.5609504 C29.9090909,19.1399603 30.3383649,19.587017 30.834393,19.587017 C31.3304211,19.587017 31.7596951,19.1399603 31.7596951,18.5609504 Z M34.2012535,18.5609504 C34.2012535,20.449402 32.7069362,22.0056217 30.834393,22.0056217 C28.9618498,22.0056217 27.4675325,20.449402 27.4675325,18.5609504 C27.4675325,16.6724988 28.9618498,15.1162791 30.834393,15.1162791 C32.7069362,15.1162791 34.2012535,16.6724988 34.2012535,18.5609504 Z" id="Stroke-3"></path>
                <path d="M16.4999548,39.1190899 C16.4999548,38.54008 16.0706808,38.0930233 15.5746527,38.0930233 C15.0786246,38.0930233 14.6493506,38.54008 14.6493506,39.1190899 C14.6493506,39.6980998 15.0786246,40.1451566 15.5746527,40.1451566 C16.0706808,40.1451566 16.4999548,39.6980998 16.4999548,39.1190899 Z M18.9415133,39.1190899 C18.9415133,41.0075415 17.4471959,42.5637612 15.5746527,42.5637612 C13.7021096,42.5637612 12.2077922,41.0075415 12.2077922,39.1190899 C12.2077922,37.2306383 13.7021096,35.6744186 15.5746527,35.6744186 C17.4471959,35.6744186 18.9415133,37.2306383 18.9415133,39.1190899 Z" id="Stroke-5"></path>
                <path d="M1.07304065,10.2332608 C1.07304065,10.5794567 1.36515156,10.8837209 1.75729955,10.8837209 C2.14944753,10.8837209 2.44155844,10.5794567 2.44155844,10.2332608 C2.44155844,9.88706495 2.14944753,9.58280077 1.75729955,9.58280077 C1.36515156,9.58280077 1.07304065,9.88706495 1.07304065,10.2332608 Z M3.51459909,10.2332608 C3.51459909,11.1964186 2.74176597,12.0014054 1.75729955,12.0014054 C0.772833122,12.0014054 0,11.1964186 0,10.2332608 C0,9.27010311 0.772833122,8.46511628 1.75729955,8.46511628 C2.74176597,8.46511628 3.51459909,9.27010311 3.51459909,10.2332608 Z" id="Stroke-7"></path>
                <path d="M21.2158978,38.0472143 C21.2158978,38.3934102 21.5080087,38.6976744 21.9001567,38.6976744 C22.2923047,38.6976744 22.5844156,38.3934102 22.5844156,38.0472143 C22.5844156,37.7010184 22.2923047,37.3967543 21.9001567,37.3967543 C21.5080087,37.3967543 21.2158978,37.7010184 21.2158978,38.0472143 Z M23.6574562,38.0472143 C23.6574562,39.0103721 22.8846231,39.8153589 21.9001567,39.8153589 C20.9156903,39.8153589 20.1428571,39.0103721 20.1428571,38.0472143 C20.1428571,37.0840566 20.9156903,36.2790698 21.9001567,36.2790698 C22.8846231,36.2790698 23.6574562,37.0840566 23.6574562,38.0472143 Z" id="Stroke-9"></path>
                <path d="M12.0600536,30.7914004 C12.0600536,31.1375963 12.3521645,31.4418605 12.7443125,31.4418605 C13.1364605,31.4418605 13.4285714,31.1375963 13.4285714,30.7914004 C13.4285714,30.4452045 13.1364605,30.1409403 12.7443125,30.1409403 C12.3521645,30.1409403 12.0600536,30.4452045 12.0600536,30.7914004 Z M14.5016121,30.7914004 C14.5016121,31.7545581 13.728779,32.559545 12.7443125,32.559545 C11.7598461,32.559545 10.987013,31.7545581 10.987013,30.7914004 C10.987013,29.8282426 11.7598461,29.0232558 12.7443125,29.0232558 C13.728779,29.0232558 14.5016121,29.8282426 14.5016121,30.7914004 Z" id="Stroke-11"></path>
                <path d="M23.0470666,19.9076795 C23.0470666,20.2538754 23.3391775,20.5581395 23.7313255,20.5581395 C24.1234735,20.5581395 24.4155844,20.2538754 24.4155844,19.9076795 C24.4155844,19.5614836 24.1234735,19.2572194 23.7313255,19.2572194 C23.3391775,19.2572194 23.0470666,19.5614836 23.0470666,19.9076795 Z M25.4886251,19.9076795 C25.4886251,20.8708372 24.7157919,21.675824 23.7313255,21.675824 C22.7468591,21.675824 21.974026,20.8708372 21.974026,19.9076795 C21.974026,18.9445217 22.7468591,18.1395349 23.7313255,18.1395349 C24.7157919,18.1395349 25.4886251,18.9445217 25.4886251,19.9076795 Z" id="Stroke-13"></path>
                <path d="M39.4600263,38.093036 C36.8878887,38.1014125 34.7840035,40.3058034 34.7922319,43.0452921 C34.8004616,45.7870144 36.9153581,47.9773479 39.4865482,47.9689732 C42.0591611,47.9610361 44.1623592,45.7577792 44.1541314,43.0167178 C44.1459029,40.2767356 42.0308957,38.0864255 39.4600263,38.093036 Z M39.4943643,50.3875654 C35.5461573,50.4004254 32.3628442,47.1035655 32.3506843,43.052486 C32.3385234,39.0037552 35.503768,35.6873024 39.4528441,35.674442 C43.400687,35.6642903 46.5835191,38.9604445 46.5956791,43.0095244 C46.6078372,47.0599983 43.4430176,50.375383 39.4943643,50.3875654 Z" id="Stroke-15"></path>
                <path d="M33.034172,19.3488514 C34.6984139,19.3437506 36.0467116,20.7685014 36.0518867,22.6008228 C36.0566185,24.4154118 34.6715724,25.8665786 32.9890623,25.8717342 C31.3069506,25.8768898 29.9138411,24.4343145 29.9091111,22.6200231 C29.9067819,21.8925207 30.1288158,21.2044531 30.5335131,20.6390311 C30.9234722,20.0942006 30.7937324,19.3393757 30.2437311,18.9530827 C29.6937298,18.5667897 28.9317413,18.6953097 28.5417822,19.2401403 C27.8441893,20.2147807 27.4636154,21.3941528 27.4675629,22.6269819 C27.4757059,25.750484 29.9375127,28.2997032 32.9966156,28.2903273 C36.055349,28.2809546 38.5015817,25.7179413 38.4934363,22.5943156 C38.4845905,19.4623227 36.0795434,16.9209013 33.0266178,16.9302583 C32.3524033,16.9323247 31.8075355,17.4754204 31.8096216,18.1432964 C31.8117076,18.8111725 32.3599575,19.3509178 33.034172,19.3488514 Z" id="Stroke-17"></path>
                <path d="M34.3649138,45.9404754 C31.2879793,47.940067 27.7386985,49.0198661 24.033567,49.0316603 C13.166786,49.0652959 4.30527686,39.8887307 4.27280817,28.5052824 C4.24185926,17.1231362 13.0518818,7.89261599 23.9182624,7.86055827 C34.7854867,7.82692291 43.646868,17.0025407 43.679845,28.3847539 C43.6883084,31.5261755 43.023106,34.5670287 41.7516721,37.3362336 C41.4725409,37.9441863 41.7437807,38.6611827 42.3575032,38.9376897 C42.9712257,39.2141968 43.6950266,38.945507 43.9741579,38.3375543 C45.3904259,35.2528981 46.1307975,31.8684221 46.1213941,28.3780558 C46.0846223,15.6860568 36.1547601,5.40406838 23.9108124,5.44196489 C11.6681711,5.4780828 1.79675043,15.820661 1.83125903,28.5119565 C1.86746339,41.2051261 11.7974444,51.4881508 24.0413043,51.4502528 C28.224992,51.4369353 32.2357981,50.2167261 35.7041801,47.9627466 C36.2679147,47.5963953 36.4251069,46.846708 36.0552787,46.2882733 C35.6854506,45.7298385 34.9286484,45.5741241 34.3649138,45.9404754 Z" id="Stroke-19"></path>
            </g>
        </g>
    </g>
</svg>